<?xml version="1.0" encoding="UTF-8" standalone="no"?>
<!-- Created with Inkscape (http://www.inkscape.org/) -->

<svg
   version="1.1"
   id="svg1"
   xml:space="preserve"
   width="1122.9346"
   height="389.59695"
   xmlns:inkscape="http://www.inkscape.org/namespaces/inkscape"
   xmlns:sodipodi="http://sodipodi.sourceforge.net/DTD/sodipodi-0.dtd"
   xmlns="http://www.w3.org/2000/svg"
   xmlns:svg="http://www.w3.org/2000/svg"><defs
     id="defs1" /><sodipodi:namedview
     id="namedview1"
     pagecolor="#505050"
     bordercolor="#eeeeee"
     borderopacity="1"
     inkscape:showpageshadow="0"
     inkscape:pageopacity="0"
     inkscape:pagecheckerboard="0"
     inkscape:deskcolor="#505050" /><inkscape:clipboard
     style="fill:#f59e0b;stroke:none"
     min="199.2142,1269.1861"
     max="1322.1487,1658.783"
     geom-min="199.2142,1269.1861"
     geom-max="1322.1487,1658.783" /><g
     id="layer1"
     transform="matrix(3.7795276,0,0,3.7795276,-199.2142,-1269.1861)"><path
       style="fill:#f59e0b;stroke:none"
       d="m 262.87006,335.85653 c 2.84307,-0.19793 5.99455,0.19358 8.73875,0.93345 2.45218,0.66113 4.77814,1.55862 6.96567,2.86279 1.65701,0.9879 3.154,2.21833 4.46925,3.62688 7.53915,8.07395 6.67583,18.51383 6.67583,28.73779 v 25.45637 c 0,8.96249 1.35847,19.05527 -2.26082,27.48275 -3.52216,8.20128 -11.50925,13.19198 -20.28263,13.79336 -3.58491,0.24572 -7.2432,0.21816 -10.76513,-0.57763 -2.55235,-0.57672 -4.91575,-1.35181 -7.21897,-2.61674 -1.6387,-0.89996 -3.23027,-2.06674 -4.55935,-3.38052 -8.07408,-7.98109 -7.21897,-19.08331 -7.21897,-29.50863 v -22.6701 c 0,-4.4319 0.0454,-8.86646 -5e-4,-13.2981 -0.0726,-7.00196 0.11204,-13.70378 3.89435,-19.88383 4.74345,-7.75047 13.00495,-10.36205 21.56252,-10.95784 M 61.625447,353.27345 H 77.58317 c 0,-2.73825 -0.129497,-5.49869 -0.01876,-8.23216 0.0331,-0.81694 -0.339893,-2.16391 0.13945,-2.88399 0.365985,-0.54979 1.212948,-0.40887 1.77904,-0.40887 h 4.685998 c 0.573985,0 1.521955,-0.17192 1.877057,0.40887 0.448341,0.73327 0.14932,2.29894 0.14932,3.13729 v 7.97886 h 16.970905 v -12.03162 c -10e-4,-0.932 -0.40422,-3.52216 0.32786,-4.21204 0.65164,-0.61407 2.86939,-0.22066 3.7249,-0.22066 1.02692,0 3.7258,-0.47779 4.4884,0.31877 0.90606,0.94642 0.28588,4.00915 0.30656,5.25386 0.0589,3.54283 0.0415,7.09617 0.0132,10.63839 -0.0109,1.37132 -0.20433,2.81786 -0.068,4.17892 0.13812,1.37908 0.0748,2.79446 0.0725,4.17989 -10e-4,0.62912 -0.006,1.28602 -0.63881,1.62376 -0.95908,0.51154 -2.84925,0.14932 -3.92054,0.14932 h -9.498641 c -10.959533,0 -21.917729,0.0702 -32.874788,-0.0196 -2.803391,-0.023 -5.608355,0.0196 -8.412654,0.0196 -0.908072,0 -2.602937,0.32517 -3.405343,-0.13016 -0.618247,-0.35084 -0.44041,-1.06361 -0.405061,-1.64292 0.07917,-1.29737 0.02559,-2.62847 -0.0213,-3.92611 -0.180194,-4.98591 0.0058,-9.99208 -0.06049,-14.98567 -0.01607,-1.21086 0.03674,-2.42287 0.01016,-3.63167 -0.01084,-0.49307 -0.0446,-1.22091 0.375644,-1.57001 0.749746,-0.62283 3.066934,-0.20307 4.012984,-0.20307 0.94535,0 3.390235,-0.435 4.124482,0.20307 0.745699,0.64802 0.308219,3.18201 0.308219,4.10298 v 11.90497 m 81.055098,45.0869 v 27.73604 7.72557 c 0,0.88979 0.27819,2.35911 -0.14932,3.16065 -0.57033,1.06928 -2.76399,0.63881 -3.77679,0.63881 h -8.8654 c -1.0362,0 -2.72918,0.3201 -3.66724,-0.16691 -0.84853,-0.44053 -0.63881,-1.57136 -0.63881,-2.36607 v -6.71237 -28.36929 -46.85998 -11.65167 c 0,-0.97799 -0.43624,-3.40935 0.29355,-4.13914 0.46606,-0.46606 1.38706,-0.29356 1.98612,-0.29356 h 4.9393 c 6.81051,0 13.85796,-0.52648 20.64372,0.0289 2.99342,0.24501 5.90675,0.71255 8.73875,1.75089 1.85672,0.68077 3.58659,1.57345 5.19259,2.72627 8.86649,6.36457 9.24535,17.30878 9.24535,27.15606 0,7.11815 -0.65628,14.7461 -5.15154,20.64372 -1.05628,1.3858 -2.23384,2.64308 -3.58721,3.74121 -7.24847,5.88145 -16.42961,5.25084 -25.20307,5.25084 m 59.90478,24.06323 h 14.058 9.62529 c 1.04665,0 2.98608,-0.37206 3.91232,0.14933 0.88782,0.49976 0.52038,2.41217 0.52038,3.27019 v 8.48545 c 0,0.82687 0.31448,2.46325 -0.42988,3.03839 -0.62891,0.48596 -1.86236,0.25448 -2.60968,0.25448 h -6.45908 -25.45637 -7.09232 c -0.82277,0 -2.07873,0.23371 -2.75734,-0.33598 -0.49946,-0.41926 -0.40885,-1.10512 -0.40888,-1.6904 v -4.1794 -17.09757 c 0,-18.58947 -0.24099,-37.25478 0.12489,-55.85203 0.0962,-4.88806 0.0192,-9.84422 -0.0863,-14.73482 -0.0361,-1.67085 -0.57601,-4.62672 0.17208,-6.14841 0.46535,-0.94654 2.8267,-0.52038 3.71542,-0.52038 h 9.75194 c 0.93652,0 2.73165,-0.36459 3.25261,0.63881 0.3137,0.60422 0.1669,1.48866 0.1669,2.14746 0,1.60223 -0.0587,3.21213 -0.0262,4.81265 0.12528,6.15924 0.0262,12.33178 0.0262,18.49069 v 23.17669 36.09485 m 129.18157,-70.41662 c 0.41915,2.47723 0.0265,5.33368 5e-4,7.85222 -0.0483,4.68439 0.0317,9.37054 0.0138,14.05799 -0.0484,12.68802 -0.1495,25.42628 -0.0138,38.12123 0.0656,6.14333 0.35542,12.36775 0.0862,18.52686 -0.0623,1.42558 -0.0867,2.8417 -0.0867,4.26989 0,0.64774 0.15442,1.53778 -0.094,2.14746 -0.43881,1.07694 -2.76972,0.63881 -3.70546,0.63881 h -9.24534 c -1.00361,0 -2.82004,0.342 -3.65404,-0.32473 -0.48347,-0.3865 -0.39869,-1.02234 -0.39872,-1.575 v -3.79943 -15.70443 -64.21084 h -12.66486 c -1.22422,0 -3.76415,0.46153 -4.79437,-0.25447 -0.81103,-0.56366 -0.52493,-2.12456 -0.49917,-2.97976 0.0844,-2.80108 -0.0262,-5.61447 -0.009,-8.41744 0.005,-0.85726 -0.35548,-2.7807 0.62994,-3.19885 1.1446,-0.48571 3.18075,-0.094 4.4194,-0.094 h 10.51184 24.44318 c 3.9295,0 8.12907,-0.42778 12.03112,0.0138 1.38574,0.15681 1.01368,2.03766 1.01368,3.02578 v 8.48545 c 0,0.87097 0.31276,2.47025 -0.40888,3.1113 -0.89038,0.79093 -3.51756,0.30821 -4.65706,0.30821 h -12.91816 m -69.53008,-0.95944 c -1.09067,0.14497 -2.16275,0.32638 -3.16621,0.80553 -5.20617,2.48594 -4.55935,9.27947 -4.55935,14.08526 v 31.66215 c 0,5.3025 -0.22699,10.66088 0.005,15.95772 0.0915,2.08995 0.32034,4.32965 1.32356,6.20578 1.72948,3.23431 5.57177,4.44449 9.05664,4.01651 1.00406,-0.12331 1.99076,-0.3405 2.91292,-0.76273 5.47723,-2.50791 4.81265,-9.13439 4.81265,-14.14556 v -31.91544 c 0,-5.34718 0.19759,-10.73652 -0.007,-16.07939 -0.0879,-2.29543 -0.52175,-4.79455 -1.86425,-6.71687 -1.86613,-2.67211 -5.40826,-3.52576 -8.51409,-3.11296 m -119.55627,0.95944 v 21.40362 6.45908 l 0.12665,3.41951 c 4.2429,-0.51914 9.97186,1.26505 13.5514,-1.79966 4.14143,-3.5458 3.16621,-10.70041 3.16621,-15.5512 0,-2.02754 0.0904,-4.06634 -0.1804,-6.07913 -0.30206,-2.24543 -0.90707,-4.60752 -2.73437,-6.12741 -3.46136,-2.87906 -9.75616,-1.72481 -13.92949,-1.72481 m -56.358622,29.88907 c 0,2.57433 0.07268,5.15627 -0.0065,7.72058 -0.02062,0.66825 -0.473625,2.20569 0.188025,2.66109 0.413958,0.28492 1.239725,0.13017 1.718159,0.13017 h 4.306052 14.184636 3.54616 c 0.43699,0 1.10116,-0.11645 1.45431,0.20297 0.51387,0.46479 0.25947,1.58715 0.27656,2.19836 0.0572,2.04491 0.40719,4.72134 -0.1246,6.71492 -0.28757,1.07807 -2.76845,0.63569 -3.63264,0.63569 H 96.707108 66.058148 57.192746 c -1.079215,0 -2.790018,0.32528 -3.792033,-0.094 -0.746167,-0.31223 -0.502099,-1.41447 -0.515778,-2.05902 -0.0388,-1.82863 -0.08191,-3.65038 -0.08814,-5.48205 -0.0019,-0.5607 -0.167517,-1.60607 0.382968,-1.96754 0.740195,-0.48604 2.515,-0.14932 3.379741,-0.14932 h 8.738753 12.284914 v -10.51184 h -17.09756 -4.812647 c -0.676721,0 -1.637956,0.17129 -2.27225,-0.094 -0.678692,-0.28388 -0.63838,-1.31885 -0.614965,-1.93735 0.07065,-1.86621 -0.0257,-3.69877 -0.0257,-5.56755 0,-0.64137 -0.177759,-1.6157 0.408872,-2.05902 0.832302,-0.62896 3.014092,-0.22066 4.023829,-0.22066 h 10.638482 29.255826 9.498642 c 1.45215,0 3.13111,-0.23494 4.55886,0.0289 0.95446,0.1764 0.88697,1.10667 0.88703,1.8708 1.2e-4,1.89986 -0.0733,3.80624 -0.0326,5.70417 0.0146,0.67987 0.18573,1.8794 -0.60794,2.19827 -0.6298,0.25304 -1.60166,0.0764 -2.27234,0.0764 h -5.1926 -17.604147 m -24.569868,36.2215 h 37.994579 9.118696 c 0.82119,0 2.54751,-0.34301 3.01689,0.51402 0.31608,0.57712 0.14932,1.50873 0.14932,2.1456 0,1.68472 -0.10895,3.38386 -0.0533,5.06595 0.0216,0.65391 0.15637,1.74837 -0.58732,2.05901 -1.12438,0.46966 -3.08542,0.094 -4.29862,0.094 H 96.960405 61.752095 v 7.09232 c 0,0.65512 0.263745,2.07344 -0.220657,2.58497 -0.447251,0.47227 -1.565657,0.30782 -2.153416,0.2786 -1.644109,-0.0817 -3.292307,-0.0448 -4.935388,-0.014 -0.857819,0.0161 -1.553061,-0.0974 -1.601578,-1.07652 -0.330795,-6.67553 0.06907,-13.45281 0.01964,-20.13712 -0.015,-2.02861 -0.0094,-4.05151 0.01202,-6.07913 0.0078,-0.7441 -0.225922,-1.80322 0.09039,-2.50405 0.278783,-0.61768 1.407593,-0.40887 1.949958,-0.40887 h 4.939296 c 0.549295,0 1.436523,-0.16378 1.769563,0.3987 0.404523,0.68321 0.130165,2.11775 0.130165,2.89416 v 7.09232"
       id="path2"
       sodipodi:nodetypes="csssssssssssssscccsssssscccssssssscssssssssssssscccsssssscccsssssssssscccssssssccssccsssssssscscccsssssssssccccssscsscssssssccssssssssssscccccssssccsssccsssssccssssssccccssssssccssssssccccssssssccssssssssssssc" /></g></svg>
